<?xml version="1.0" encoding="UTF-8"?>
<svg id="Layer_1" data-name="Layer 1" xmlns="http://www.w3.org/2000/svg" viewBox="0 0 512 511.09">
  <defs>
    <style>
      .cls-1, .cls-2 {
        fill: #231f20;
      }

      .cls-3 {
        fill: #fdc110;
      }

      .cls-4 {
        fill: #f3af1c;
      }

      .cls-2 {
        opacity: .4;
      }
    </style>
  </defs>
  <path class="cls-3" d="M368.06,25.6c164.47,79.28,193.67,298.27,58.13,420.43-134.23,120.98-344.22,65.12-408.69-100.59C-65.5,132.08,162.64-73.42,368.06,25.6Z"/>
  <path class="cls-2" d="M357.82,46.08l-4.22,9.64c-98.32-46.29-215.63-14.23-277.68,73.79C3.95,231.6,30.88,371.92,133.15,441.82l-7.23,8.43c-49.19-33.72-86.23-88.35-97.58-147.27C-7.88,114.93,183.88-35.76,357.82,46.08Z"/>
  <path class="cls-1" d="M482.51,324.37l-8.43-9.64c26.81-103.59-24.08-213.62-120.47-259.01l4.22-9.64c105.09,49.45,157.85,165.86,124.68,278.28Z"/>
  <path class="cls-2" d="M482.51,324.37c-28.94,98.11-120.58,167.35-223.47,167.45l-10.24-11.44c103.02,3.95,199.38-65.57,225.28-165.64l8.43,9.64Z"/>
  <path class="cls-1" d="M133.15,441.82c33.48,22.89,74.89,36.99,115.65,38.55l10.24,11.44c-48.1.05-93.75-14.58-133.12-41.56l7.23-8.43Z"/>
  <path class="cls-3" d="M353.6,55.72c96.39,45.38,147.27,155.41,120.47,259.01-25.9,100.08-122.26,169.6-225.28,165.64-40.76-1.56-82.17-15.66-115.65-38.55C30.88,371.92,3.95,231.6,75.93,129.51,137.98,41.49,255.29,9.43,353.6,55.72Z"/>
  <g>
    <path class="cls-1" d="M247.29,114.15c4.98-.83,23.36-.56,27.11,2.41,38.11,78.79,71.3,160.43,108.12,240.03,2.11,6.07-1.59,13.56-8.13,14.76-2.89.53-31.23.58-33.73,0-3.88-.9-6.98-7.85-8.73-11.14-2.36-4.44-14.69-35.73-16.56-36.44h-114.44c-1.75.73-13.17,30.39-15.36,34.63-4.44,8.6-4.87,11.25-15.36,12.35-4.24.44-24.82,1.16-28.31.6-6.63-1.07-9.74-9.51-7.53-15.36,35.69-73.96,64.13-152.09,99.99-225.88,3.08-6.34,5.26-14.68,12.95-15.96Z"/>
    <polygon class="cls-4" points="258.13 194.26 294.88 277.38 221.09 277.08 258.13 194.26"/>
  </g>
</svg>